<svg width="30" height="30" viewBox="0 0 30 30" fill="none" xmlns="http://www.w3.org/2000/svg">
<path d="M14.855 7.64505C14.7099 7.49991 14.5377 7.38478 14.3481 7.30623C14.1585 7.22769 13.9553 7.18726 13.75 7.18726C13.5448 7.18726 13.3416 7.22769 13.152 7.30623C12.9624 7.38478 12.7901 7.49991 12.645 7.64505L6.39505 13.895C6.24991 14.0401 6.13478 14.2124 6.05623 14.402C5.97769 14.5916 5.93726 14.7948 5.93726 15C5.93726 15.2053 5.97769 15.4085 6.05623 15.5981C6.13478 15.7877 6.24991 15.96 6.39505 16.105L12.645 22.355C12.9381 22.6481 13.3356 22.8128 13.75 22.8128C14.1645 22.8128 14.562 22.6481 14.855 22.355C15.1481 22.062 15.3128 21.6645 15.3128 21.25C15.3128 20.8356 15.1481 20.4381 14.855 20.145L11.2725 16.5625H22.5C22.9144 16.5625 23.3119 16.3979 23.6049 16.1049C23.8979 15.8119 24.0625 15.4144 24.0625 15C24.0625 14.5856 23.8979 14.1882 23.6049 13.8952C23.3119 13.6022 22.9144 13.4375 22.5 13.4375H11.2725L14.855 9.85505C15.0002 9.70995 15.1153 9.53768 15.1939 9.34809C15.2724 9.15849 15.3128 8.95527 15.3128 8.75005C15.3128 8.54482 15.2724 8.34161 15.1939 8.15201C15.1153 7.96241 15.0002 7.79014 14.855 7.64505Z" fill="white"/>
</svg>
