<svg width="32" height="33" viewBox="0 0 32 33" fill="none" xmlns="http://www.w3.org/2000/svg">
<path d="M16.0001 18.3667L9.46673 24.9C9.22229 25.1444 8.91118 25.2667 8.5334 25.2667C8.15562 25.2667 7.84451 25.1444 7.60006 24.9C7.35562 24.6556 7.2334 24.3444 7.2334 23.9667C7.2334 23.5889 7.35562 23.2778 7.60006 23.0333L14.1334 16.5L7.60006 9.96667C7.35562 9.72223 7.2334 9.41111 7.2334 9.03334C7.2334 8.65556 7.35562 8.34445 7.60006 8.1C7.84451 7.85556 8.15562 7.73334 8.5334 7.73334C8.91118 7.73334 9.22229 7.85556 9.46673 8.1L16.0001 14.6333L22.5334 8.1C22.7778 7.85556 23.089 7.73334 23.4667 7.73334C23.8445 7.73334 24.1556 7.85556 24.4001 8.1C24.6445 8.34445 24.7667 8.65556 24.7667 9.03334C24.7667 9.41111 24.6445 9.72223 24.4001 9.96667L17.8667 16.5L24.4001 23.0333C24.6445 23.2778 24.7667 23.5889 24.7667 23.9667C24.7667 24.3444 24.6445 24.6556 24.4001 24.9C24.1556 25.1444 23.8445 25.2667 23.4667 25.2667C23.089 25.2667 22.7778 25.1444 22.5334 24.9L16.0001 18.3667Z" fill="#F7F7F7"/>
</svg>
