<svg width="24" height="25" viewBox="0 0 24 25" fill="none" xmlns="http://www.w3.org/2000/svg">
<path d="M11.9998 3.50019H12.3928C11.1081 4.69389 10.2824 6.30003 10.0591 8.03941C9.83577 9.77879 10.229 11.5414 11.1705 13.0209C12.112 14.5004 13.5422 15.6032 15.2124 16.1377C16.8826 16.6721 18.6873 16.6043 20.3128 15.9462C19.6875 17.4507 18.6656 18.7572 17.356 19.7264C16.0464 20.6957 14.4982 21.2912 12.8767 21.4496C11.2552 21.6079 9.62104 21.3231 8.14867 20.6256C6.6763 19.928 5.42089 18.8439 4.51637 17.4888C3.61185 16.1337 3.09213 14.5585 3.01267 12.9312C2.9332 11.3038 3.29696 9.68548 4.06515 8.2487C4.83334 6.81192 5.97714 5.61061 7.37454 4.77292C8.77195 3.93523 10.3705 3.49258 11.9998 3.49219V3.50019Z" stroke="#F7F7F7" stroke-width="2" stroke-linecap="round" stroke-linejoin="round"/>
</svg>
