<svg width="28" height="28" viewBox="0 0 28 28" fill="none" xmlns="http://www.w3.org/2000/svg">
<path d="M12.0168 8.98333C11.9087 9.09011 11.8229 9.21728 11.7644 9.35746C11.7058 9.49765 11.6756 9.64807 11.6756 9.8C11.6756 9.95193 11.7058 10.1023 11.7644 10.2425C11.8229 10.3827 11.9087 10.5099 12.0168 10.6167L14.2335 12.8333H3.50016C2.8585 12.8333 2.3335 13.3583 2.3335 14C2.3335 14.6417 2.8585 15.1667 3.50016 15.1667H14.2335L12.0168 17.3833C11.9087 17.4901 11.8229 17.6173 11.7644 17.7575C11.7058 17.8977 11.6756 18.0481 11.6756 18.2C11.6756 18.3519 11.7058 18.5023 11.7644 18.6425C11.8229 18.7827 11.9087 18.9099 12.0168 19.0167C12.4718 19.4717 13.1952 19.4717 13.6502 19.0167L17.8385 14.8283C17.9466 14.7204 18.0325 14.5922 18.091 14.4511C18.1495 14.3099 18.1797 14.1586 18.1797 14.0058C18.1797 13.853 18.1495 13.7017 18.091 13.5606C18.0325 13.4195 17.9466 13.2913 17.8385 13.1833L13.6502 8.98333C13.5434 8.87525 13.4162 8.78944 13.276 8.73088C13.1358 8.67231 12.9854 8.64215 12.8335 8.64215C12.6816 8.64215 12.5311 8.67231 12.391 8.73088C12.2508 8.78944 12.1236 8.87525 12.0168 8.98333ZM23.3335 22.1667H15.1668C14.5252 22.1667 14.0002 22.6917 14.0002 23.3333C14.0002 23.975 14.5252 24.5 15.1668 24.5H23.3335C24.6168 24.5 25.6668 23.45 25.6668 22.1667V5.83333C25.6668 4.55 24.6168 3.5 23.3335 3.5H15.1668C14.5252 3.5 14.0002 4.025 14.0002 4.66667C14.0002 5.30833 14.5252 5.83333 15.1668 5.83333H23.3335V22.1667Z" fill="#F7F7F7"/>
</svg>
