<svg width="60" height="60" viewBox="0 0 60 60" fill="none" xmlns="http://www.w3.org/2000/svg">
<path d="M22.5 12.498C22.5 11.835 22.2366 11.1991 21.7678 10.7303C21.2989 10.2614 20.663 9.99805 20 9.99805H15C14.337 9.99805 13.7011 10.2614 13.2322 10.7303C12.7634 11.1991 12.5 11.835 12.5 12.498V47.4981C12.5 48.1611 12.7634 48.797 13.2322 49.2659C13.7011 49.7347 14.337 49.9981 15 49.9981H20C20.663 49.9981 21.2989 49.7347 21.7678 49.2659C22.2366 48.797 22.5 48.1611 22.5 47.4981M22.5 12.498V47.4981M22.5 12.498C22.5 11.835 22.7634 11.1991 23.2322 10.7303C23.7011 10.2614 24.337 9.99805 25 9.99805H30C30.6631 9.99805 31.2989 10.2614 31.7678 10.7303C32.2366 11.1991 32.5 11.835 32.5 12.498V47.4981C32.5 48.1611 32.2366 48.797 31.7678 49.2659C31.2989 49.7347 30.6631 49.9981 30 49.9981H25C24.337 49.9981 23.7011 49.7347 23.2322 49.2659C22.7634 48.797 22.5 48.1611 22.5 47.4981M12.5 19.9981H22.5M22.5 39.9981H32.5" stroke="#F7F7F7" stroke-width="2.4" stroke-linecap="round" stroke-linejoin="round"/>
<path d="M35.0002 22.4994L45.0002 19.9994M40.0002 39.9993L49.8077 37.5493M34.5077 11.3994L39.9677 10.0744C41.3727 9.73687 42.8002 10.5494 43.1727 11.9044L52.4102 45.4493C52.5732 46.0635 52.501 46.7163 52.2078 47.28C51.9146 47.8437 51.4216 48.2776 50.8252 48.4968L50.4927 48.5993L45.0327 49.9243C43.6277 50.2618 42.2002 49.4493 41.8277 48.0943L32.5902 14.5494C32.4272 13.9352 32.4994 13.2824 32.7926 12.7187C33.0858 12.155 33.5788 11.7211 34.1752 11.5019L34.5077 11.3994Z" stroke="#F7F7F7" stroke-width="2.4" stroke-linecap="round" stroke-linejoin="round"/>
</svg>
