<svg width="60" height="60" viewBox="0 0 60 60" fill="none" xmlns="http://www.w3.org/2000/svg">
<path d="M22.5 12.499C22.5 11.836 22.2366 11.2001 21.7678 10.7313C21.2989 10.2624 20.663 9.99902 20 9.99902H15C14.337 9.99902 13.7011 10.2624 13.2322 10.7313C12.7634 11.2001 12.5 11.836 12.5 12.499V47.4991C12.5 48.1621 12.7634 48.798 13.2322 49.2668C13.7011 49.7357 14.337 49.9991 15 49.9991H20C20.663 49.9991 21.2989 49.7357 21.7678 49.2668C22.2366 48.798 22.5 48.1621 22.5 47.4991M22.5 12.499V47.4991M22.5 12.499C22.5 11.836 22.7634 11.2001 23.2322 10.7313C23.7011 10.2624 24.337 9.99902 25 9.99902H30C30.6631 9.99902 31.2989 10.2624 31.7678 10.7313C32.2366 11.2001 32.5 11.836 32.5 12.499V47.4991C32.5 48.1621 32.2366 48.798 31.7678 49.2668C31.2989 49.7357 30.6631 49.9991 30 49.9991H25C24.337 49.9991 23.7011 49.7357 23.2322 49.2668C22.7634 48.798 22.5 48.1621 22.5 47.4991M12.5 19.999H22.5M22.5 39.9991H32.5" stroke="#181818" stroke-width="2.4" stroke-linecap="round" stroke-linejoin="round"/>
<path d="M35.0002 22.5003L45.0002 20.0003M40.0002 40.0003L49.8077 37.5503M34.5077 11.4003L39.9677 10.0754C41.3727 9.73785 42.8002 10.5503 43.1727 11.9053L52.4102 45.4503C52.5732 46.0644 52.501 46.7173 52.2078 47.281C51.9146 47.8447 51.4216 48.2786 50.8252 48.4978L50.4927 48.6003L45.0327 49.9253C43.6277 50.2628 42.2002 49.4503 41.8277 48.0953L32.5902 14.5503C32.4272 13.9362 32.4994 13.2834 32.7926 12.7197C33.0858 12.156 33.5788 11.722 34.1752 11.5028L34.5077 11.4003Z" stroke="#181818" stroke-width="2.4" stroke-linecap="round" stroke-linejoin="round"/>
</svg>
