<svg width="36" height="36" viewBox="0 0 36 36" fill="none" xmlns="http://www.w3.org/2000/svg">
<path d="M5.625 9.75C5.625 9.45163 5.74353 9.16548 5.9545 8.9545C6.16548 8.74353 6.45163 8.625 6.75 8.625H29.25C29.5484 8.625 29.8345 8.74353 30.0455 8.9545C30.2565 9.16548 30.375 9.45163 30.375 9.75C30.375 10.0484 30.2565 10.3345 30.0455 10.5455C29.8345 10.7565 29.5484 10.875 29.25 10.875H6.75C6.45163 10.875 6.16548 10.7565 5.9545 10.5455C5.74353 10.3345 5.625 10.0484 5.625 9.75ZM5.625 18C5.625 17.7016 5.74353 17.4155 5.9545 17.2045C6.16548 16.9935 6.45163 16.875 6.75 16.875H29.25C29.5484 16.875 29.8345 16.9935 30.0455 17.2045C30.2565 17.4155 30.375 17.7016 30.375 18C30.375 18.2984 30.2565 18.5845 30.0455 18.7955C29.8345 19.0065 29.5484 19.125 29.25 19.125H6.75C6.45163 19.125 6.16548 19.0065 5.9545 18.7955C5.74353 18.5845 5.625 18.2984 5.625 18ZM5.625 26.25C5.625 25.9516 5.74353 25.6655 5.9545 25.4545C6.16548 25.2435 6.45163 25.125 6.75 25.125H29.25C29.5484 25.125 29.8345 25.2435 30.0455 25.4545C30.2565 25.6655 30.375 25.9516 30.375 26.25C30.375 26.5484 30.2565 26.8345 30.0455 27.0455C29.8345 27.2565 29.5484 27.375 29.25 27.375H6.75C6.45163 27.375 6.16548 27.2565 5.9545 27.0455C5.74353 26.8345 5.625 26.5484 5.625 26.25Z" fill="#F7F7F7"/>
</svg>
