<svg width="28" height="28" viewBox="0 0 28 28" fill="none" xmlns="http://www.w3.org/2000/svg">
<path d="M17.4998 4.66602C16.2622 4.66602 15.0752 5.15768 14.2 6.03285C13.3248 6.90802 12.8332 8.09501 12.8332 9.33268C12.8332 10.5704 13.3248 11.7573 14.2 12.6325C15.0752 13.5077 16.2622 13.9993 17.4998 13.9993C18.7375 13.9993 19.9245 13.5077 20.7997 12.6325C21.6748 11.7573 22.1665 10.5704 22.1665 9.33268C22.1665 8.09501 21.6748 6.90802 20.7997 6.03285C19.9245 5.15768 18.7375 4.66602 17.4998 4.66602ZM17.4998 6.88268C17.8216 6.88268 18.1402 6.94605 18.4374 7.06918C18.7347 7.1923 19.0047 7.37277 19.2322 7.60027C19.4598 7.82777 19.6402 8.09786 19.7633 8.39511C19.8865 8.69236 19.9498 9.01094 19.9498 9.33268C19.9498 9.65442 19.8865 9.97301 19.7633 10.2703C19.6402 10.5675 19.4598 10.8376 19.2322 11.0651C19.0047 11.2926 18.7347 11.4731 18.4374 11.5962C18.1402 11.7193 17.8216 11.7827 17.4998 11.7827C17.1781 11.7827 16.8595 11.7193 16.5623 11.5962C16.265 11.4731 15.9949 11.2926 15.7674 11.0651C15.5399 10.8376 15.3595 10.5675 15.2363 10.2703C15.1132 9.97301 15.0498 9.65442 15.0498 9.33268C15.0498 8.6829 15.308 8.05973 15.7674 7.60027C16.2269 7.14081 16.8501 6.88268 17.4998 6.88268ZM4.6665 8.16602V11.666H1.1665V13.9993H4.6665V17.4993H6.99984V13.9993H10.4998V11.666H6.99984V8.16602H4.6665ZM17.4998 15.166C14.3848 15.166 8.1665 16.7177 8.1665 19.8327V23.3327H26.8332V19.8327C26.8332 16.7177 20.6148 15.166 17.4998 15.166ZM17.4998 17.3827C20.9648 17.3827 24.6165 19.086 24.6165 19.8327V21.116H10.3832V19.8327C10.3832 19.086 13.9998 17.3827 17.4998 17.3827Z" fill="#F7F7F7"/>
</svg>
