<svg width="28" height="28" viewBox="0 0 28 28" fill="none" xmlns="http://www.w3.org/2000/svg">
<path fill-rule="evenodd" clip-rule="evenodd" d="M23.1002 11.8764C22.7385 8.16636 20.5452 2.33301 13.7669 2.33301C6.98853 2.33301 4.79517 8.16636 4.43352 11.8764C3.16477 12.3579 2.32789 13.576 2.33352 14.933V16.5664C2.33352 18.3705 3.79609 19.833 5.60017 19.833C7.40431 19.833 8.86688 18.3704 8.86688 16.5664V14.933C8.86097 13.6052 8.05488 12.4122 6.82517 11.9114C7.05853 9.76466 8.20188 4.66636 13.7669 4.66636C19.3319 4.66636 20.4635 9.76466 20.6969 11.9114C19.4697 12.4133 18.6676 13.6072 18.6669 14.933V16.5664C18.6694 17.181 18.8446 17.7826 19.1726 18.3025C19.5006 18.8223 19.9682 19.2395 20.5219 19.5064C20.0319 20.428 18.7835 21.6764 15.7152 22.0497C15.1019 21.1183 13.9152 20.7512 12.883 21.1734C11.8509 21.5956 11.2618 22.6892 11.477 23.7834C11.6923 24.8775 12.6517 25.6664 13.7669 25.6664C14.199 25.6639 14.6219 25.5416 14.9886 25.3129C15.3553 25.0843 15.6512 24.7583 15.8435 24.3714C20.8485 23.7997 22.4469 21.2214 22.9485 19.7047C24.3057 19.265 25.2185 17.9929 25.2002 16.5664V14.933C25.2058 13.576 24.3689 12.3579 23.1002 11.8764ZM6.53353 16.5664C6.53353 17.0818 6.11566 17.4997 5.60017 17.4997C5.08469 17.4997 4.66688 17.0818 4.66688 16.5664V14.933C4.66593 14.8098 4.68938 14.6877 4.73586 14.5736C4.78234 14.4596 4.85094 14.3558 4.9377 14.2684C5.02446 14.181 5.12767 14.1116 5.24137 14.0642C5.35508 14.0169 5.47703 13.9925 5.6002 13.9925C5.72337 13.9925 5.84532 14.0169 5.95903 14.0642C6.07273 14.1116 6.17594 14.181 6.2627 14.2684C6.34946 14.3558 6.41806 14.4596 6.46454 14.5736C6.51102 14.6877 6.53447 14.8098 6.53353 14.933V16.5664ZM21.0002 14.933C21.0002 14.4175 21.418 13.9997 21.9335 13.9997C22.449 13.9997 22.8669 14.4175 22.8669 14.933V16.5664C22.8669 17.0818 22.449 17.4997 21.9335 17.4997C21.418 17.4997 21.0002 17.0818 21.0002 16.5664V14.933Z" fill="black"/>
</svg>
